# Blender v2.83.9 OBJ File: 'BlendGift.blend'
# www.blender.org
o Beg1.col_Cube.034
v -3.083682 -0.000000 4.091055
v -3.083682 4.000000 3.891055
v -3.083682 -0.000000 -0.008945
v -3.083682 4.000000 -0.108945
v 3.257993 -0.000000 4.101334
v 3.257993 4.000000 4.101334
v 2.909370 -0.000000 0.116555
v 2.909370 4.000000 0.116555
v 9.035334 3.820162 -0.210279
v 9.383956 -0.164617 -0.210279
v 9.731253 -0.134232 3.774500
v 9.382630 3.850546 3.774500
v 15.299837 4.350283 -1.073977
v 15.648460 0.365505 -1.073977
v 16.852238 0.270822 4.153425
v 16.503614 4.255600 4.153425
v 20.847746 4.139999 -0.589721
v 20.847746 0.140000 -0.589721
v 20.075148 0.140000 2.201903
v 20.075148 4.139999 2.201903
v 16.618458 4.000000 -13.713133
v 16.801830 0.199955 -13.713133
v 21.599430 4.000000 -13.277354
v 21.763849 -0.234166 -13.277354
v 16.391054 4.000000 -18.504757
v 16.575294 0.219774 -18.504757
v 21.391054 4.000000 -18.504757
v 21.556267 -0.216005 -18.504757
v 15.880671 -32.000252 -13.972031
v 16.314791 -31.528296 -18.930737
v 21.088182 -31.528227 -14.139904
v 21.088182 -31.092449 -19.120878
v 16.403606 -37.761303 -13.723068
v 16.837727 -37.723324 -18.704041
v 21.611116 -37.305706 -13.931446
v 21.611116 -37.305706 -18.931446
v 27.164108 -32.006119 -14.431253
v 27.598228 -31.570343 -19.393272
v 27.145941 -37.783600 -14.223589
v 27.581718 -37.783600 -19.204561
v 34.137470 -32.006119 -12.821163
v 34.571594 -31.570343 -17.783182
v 34.119301 -37.783600 -12.613499
v 34.555084 -37.783600 -17.594471
v 41.359177 -31.006121 -13.117111
v 41.359177 -30.570343 -18.098083
v 41.359177 -36.783600 -12.908653
v 41.359177 -36.783600 -17.908649
v 50.150791 -30.006121 -13.126209
v 50.584911 -29.570343 -18.088228
v 50.132622 -35.783600 -12.918545
v 50.568401 -35.783600 -17.899517
v -9.174312 0.000000 0.007611
v -8.825688 0.000000 3.992389
v -8.825688 4.000000 3.992389
v -9.174312 4.000000 0.007611
v 21.558340 -0.259436 -7.272620
v 15.963640 0.100756 -6.800562
v 21.471302 4.266434 -7.257273
v 15.673457 4.384713 -6.749395
v 61.000004 -30.220205 -13.608986
v 61.000004 -29.784428 -18.589958
v 61.000000 -35.997684 -13.400528
v 61.000004 -35.997684 -18.400526
v -14.041796 0.200000 3.069744
v -10.827761 0.200000 5.727504
v -10.927761 3.800000 5.627504
v -14.141796 3.800000 2.969744
v -14.082912 0.506849 9.433867
v -10.482913 0.506849 9.433867
v -10.482913 4.093151 9.120107
v -14.082912 4.093151 9.120107
v -13.896748 0.880000 14.135796
v -10.669078 0.880000 14.418179
v -10.669078 4.120000 14.418179
v -13.896748 4.120000 14.135796
v -14.506834 0.373859 20.249815
v -11.279165 0.398470 19.968502
v -11.279165 3.626142 20.250887
v -14.506834 3.601530 20.532200
v -14.071052 0.429129 25.651684
v -10.843383 0.380093 25.373587
v -10.843383 3.570871 24.810966
v -14.071052 3.619907 25.089064
vt 0.876503 0.087913
vt 0.788590 0.000000
vt 0.788590 0.087913
vt 0.526812 0.815456
vt 0.616620 0.725649
vt 0.526812 0.725649
vt 0.785447 0.280521
vt 0.719839 0.147690
vt 0.719839 0.280521
vt 0.387280 0.698458
vt 0.518749 0.763393
vt 0.518749 0.698458
vt 0.788590 0.130245
vt 0.724259 0.000000
vt 0.724259 0.130245
vt 0.623486 0.736995
vt 0.752854 0.800893
vt 0.752854 0.736995
vt 0.106120 0.653301
vt 0.177989 0.507794
vt 0.106120 0.507794
vt 0.387280 0.763393
vt 0.516507 0.827221
vt 0.516507 0.763393
vt 0.785436 0.446383
vt 0.720799 0.315518
vt 0.720799 0.446383
vt 0.206830 0.725065
vt 0.337696 0.789703
vt 0.337696 0.725065
vt 0.923788 1.000000
vt 0.996291 0.927497
vt 0.923788 0.927497
vt 0.171048 0.784755
vt 0.106120 0.653301
vt 0.106120 0.784755
vt 0.206830 0.656199
vt 0.346258 0.725065
vt 0.346258 0.656199
vt 0.630122 0.145507
vt 0.558253 0.000000
vt 0.558253 0.145507
vt 0.963960 0.467163
vt 0.901544 0.404747
vt 0.901544 0.467163
vt 0.000000 0.969240
vt 0.075738 0.893502
vt 0.000000 0.893502
vt 0.953372 0.305501
vt 0.874601 0.226730
vt 0.874601 0.305501
vt 0.405702 0.075348
vt 0.558253 0.000000
vt 0.405702 0.000000
vt 0.630122 0.094138
vt 0.724259 0.000000
vt 0.630122 0.000000
vt 0.547230 0.624318
vt 0.623486 0.469930
vt 0.547230 0.469930
vt 0.623486 0.736995
vt 0.762321 0.668421
vt 0.623486 0.668421
vt 0.288659 0.935148
vt 0.206830 0.853319
vt 0.206830 0.935148
vt 0.785447 0.315077
vt 0.863680 0.236844
vt 0.785447 0.236844
vt 0.813863 0.661238
vt 0.722266 0.569641
vt 0.722266 0.661238
vt 0.613055 0.901699
vt 0.526812 0.815456
vt 0.526812 0.901699
vt 0.387280 0.315518
vt 0.470174 0.147690
vt 0.387280 0.147690
vt 0.405702 0.147623
vt 0.552031 0.075348
vt 0.405702 0.075348
vt 0.863680 0.315077
vt 0.387280 0.559092
vt 0.288659 0.853319
vt 0.623655 0.243874
vt 0.000000 0.806158
vt 0.092016 0.714142
vt 0.000000 0.714142
vt 0.622921 0.725649
vt 0.526812 0.629540
vt 0.526812 0.725649
vt 0.719839 0.243874
vt 0.623655 0.147690
vt 0.387280 0.629540
vt 0.529909 0.559092
vt 0.547188 0.303614
vt 0.470174 0.147690
vt 0.470174 0.303614
vt 0.000000 0.613914
vt 0.106120 0.507794
vt 0.000000 0.507794
vt 0.623486 0.668421
vt 0.722266 0.569641
vt 0.623486 0.569641
vt 0.286481 0.119221
vt 0.405702 0.000000
vt 0.286481 0.000000
vt 0.156324 0.430583
vt 0.000000 0.430583
vt 0.469695 0.482376
vt 0.387280 0.315518
vt 0.387280 0.482376
vt 0.387280 0.482376
vt 0.542602 0.559092
vt 0.542602 0.482376
vt 0.147690 0.138791
vt 0.286481 0.000000
vt 0.147690 0.000000
vt 0.623655 0.302505
vt 0.547188 0.147690
vt 0.547188 0.302505
vt 0.206830 0.505003
vt 0.368084 0.425356
vt 0.206830 0.425356
vt 0.469695 0.472497
vt 0.547230 0.315518
vt 0.469695 0.315518
vt 0.000000 0.147690
vt 0.206830 0.249848
vt 0.206830 0.147690
vt 0.387280 0.323133
vt 0.300625 0.147690
vt 0.300625 0.323133
vt 0.206830 0.425356
vt 0.384522 0.337590
vt 0.206830 0.337590
vt 0.175882 0.430583
vt 0.000000 0.343711
vt 0.000000 0.430583
vt 0.838710 0.912545
vt 0.752854 0.826689
vt 0.752854 0.912545
vt 0.785447 0.236844
vt 0.874601 0.147690
vt 0.785447 0.147690
vt 0.195781 0.874416
vt 0.106120 0.784755
vt 0.106120 0.874416
vt 0.206830 0.789703
vt 0.335628 0.853319
vt 0.335628 0.789703
vt 0.874665 0.404747
vt 0.785436 0.315518
vt 0.785436 0.404747
vt 0.547230 0.469930
vt 0.623498 0.315518
vt 0.547230 0.315518
vt 0.387280 0.629540
vt 0.526812 0.698458
vt 0.526812 0.629540
vt 0.281509 0.656199
vt 0.206830 0.505003
vt 0.206830 0.656199
vt 0.000000 0.714142
vt 0.100228 0.613914
vt 0.000000 0.613914
vt 0.000000 0.249848
vt 0.190037 0.343711
vt 0.190037 0.249848
vt 0.147690 0.147690
vt 0.000000 0.000000
vt 0.000000 0.147690
vt 0.300625 0.337590
vt 0.206830 0.147690
vt 0.206830 0.337590
vt 0.762321 0.668421
vt 0.886222 0.729618
vt 0.886222 0.668421
vt 0.460302 0.971096
vt 0.518571 0.912827
vt 0.460302 0.912827
vt 0.460302 0.985849
vt 0.387280 0.912827
vt 0.387280 0.985849
vt 0.923788 0.927497
vt 0.996455 0.854830
vt 0.923788 0.854830
vt 0.951603 0.404747
vt 0.874665 0.327809
vt 0.874665 0.404747
vt 0.876503 0.143220
vt 0.942817 0.076907
vt 0.876503 0.076907
vt 0.974401 0.810647
vt 0.900749 0.736995
vt 0.900749 0.810647
vt 0.900227 0.645237
vt 0.975823 0.569641
vt 0.900227 0.569641
vt 0.185820 0.954117
vt 0.106120 0.874416
vt 0.106120 0.954117
vt 0.900362 0.544602
vt 0.975033 0.469930
vt 0.900362 0.469930
vt 0.900227 0.730777
vt 0.974998 0.656005
vt 0.900227 0.656005
vt 0.953410 0.076907
vt 0.876503 0.000000
vt 0.694286 0.314504
vt 0.623655 0.243874
vt 0.623655 0.314504
vt 0.842548 0.854830
vt 0.900749 0.736995
vt 0.842548 0.736995
vt 0.953640 0.226730
vt 0.874601 0.147690
vt 0.874601 0.226730
vt 0.785436 0.404747
vt 0.901544 0.462095
vt 0.901544 0.404747
vt 0.848001 0.147325
vt 0.788590 0.087913
vt 0.788590 0.147325
vt 0.700335 0.965448
vt 0.623486 0.888599
vt 0.623486 0.965448
vt 0.526812 0.975155
vt 0.600269 0.901699
vt 0.526812 0.901699
vt 0.826310 0.986001
vt 0.752854 0.912545
vt 0.752854 0.986001
vt 0.876503 0.000000
vt 0.616620 0.815456
vt 0.785447 0.147690
vt 0.387280 0.763393
vt 0.788590 0.000000
vt 0.623486 0.800893
vt 0.177989 0.653301
vt 0.387280 0.827221
vt 0.785436 0.315518
vt 0.206830 0.789703
vt 0.996291 1.000000
vt 0.171048 0.653301
vt 0.206830 0.725065
vt 0.630122 0.000000
vt 0.963960 0.404747
vt 0.075738 0.969240
vt 0.953372 0.226730
vt 0.558253 0.075348
vt 0.724259 0.094138
vt 0.623486 0.624318
vt 0.762321 0.736995
vt 0.813863 0.569641
vt 0.613055 0.815456
vt 0.470174 0.315518
vt 0.552031 0.147623
vt 0.092016 0.806158
vt 0.622921 0.629540
vt 0.719839 0.147690
vt 0.529909 0.629540
vt 0.547188 0.147690
vt 0.106120 0.613914
vt 0.722266 0.668421
vt 0.405702 0.119221
vt 0.156324 0.507794
vt 0.469695 0.315518
vt 0.387280 0.559092
vt 0.286481 0.138791
vt 0.623655 0.147690
vt 0.368084 0.505003
vt 0.547230 0.472497
vt 0.000000 0.249848
vt 0.387280 0.147690
vt 0.384522 0.425356
vt 0.175882 0.343711
vt 0.838710 0.826689
vt 0.874601 0.236844
vt 0.195781 0.784755
vt 0.206830 0.853319
vt 0.874665 0.315518
vt 0.623498 0.469930
vt 0.387280 0.698458
vt 0.281509 0.505003
vt 0.100228 0.714142
vt 0.147690 0.000000
vt 0.300625 0.147690
vt 0.762321 0.729618
vt 0.518571 0.971096
vt 0.996455 0.927497
vt 0.951603 0.327809
vt 0.942817 0.143220
vt 0.974401 0.736995
vt 0.975823 0.645237
vt 0.185820 0.874416
vt 0.975033 0.544602
vt 0.974998 0.730777
vt 0.953410 0.000000
vt 0.694286 0.243874
vt 0.900749 0.854830
vt 0.953640 0.147690
vt 0.785436 0.462095
vt 0.848001 0.087913
vt 0.700335 0.888599
vt 0.600269 0.975155
vt 0.826310 0.912545
vn -0.0176 -0.0499 -0.9986
vn -0.0376 0.0250 0.9990
vn 0.0253 0.9997 -0.0022
vn 0.0016 0.0000 -1.0000
vn 0.0000 1.0000 0.0000
vn 0.0000 -1.0000 0.0000
vn 0.0584 -0.9978 -0.0315
vn -0.0239 -0.9997 0.0097
vn 0.0533 0.0000 0.9986
vn -0.0505 -0.0044 -0.9987
vn -0.5180 0.0000 -0.8554
vn 0.1356 0.0119 0.9907
vn 0.0529 0.0046 -0.9986
vn -0.0844 0.9964 -0.0002
vn -0.9638 0.0000 -0.2667
vn 0.0422 0.9990 0.0117
vn -0.0375 -0.9993 -0.0095
vn 0.0661 0.9976 0.0223
vn -0.9987 -0.0388 -0.0343
vn -0.0039 -0.9990 0.0441
vn 0.9893 0.0655 0.1306
vn 0.0000 0.0000 1.0000
vn 0.9977 0.0486 -0.0473
vn -0.9985 -0.0388 0.0395
vn 0.2248 -0.0357 -0.9737
vn -0.0823 -0.9928 -0.0869
vn 0.0897 0.0255 -0.9956
vn -0.9991 0.0144 0.0397
vn -0.0017 -0.0199 0.9998
vn 0.9989 -0.0076 -0.0473
vn -0.0872 0.9962 0.0000
vn -0.0280 -0.0457 -0.9986
vn 0.9916 0.0872 0.0951
vn 0.0367 0.0335 0.9988
vn 0.0443 0.0342 0.9984
vn -0.0557 -0.0357 -0.9978
vn 0.0801 0.9968 0.0070
vn 0.0418 0.0304 0.9987
vn -0.2249 0.0302 0.9739
vn 0.0198 -0.9961 -0.0857
vn -0.0044 0.0304 0.9995
vn 0.1338 -0.9882 -0.0751
vn -0.0358 -0.0358 -0.9987
vn -0.1454 0.9894 0.0000
vn -0.0450 -0.0360 -0.9983
vn 0.1125 -0.9899 -0.0866
vn 0.0030 -0.0361 -0.9993
vn -0.1079 0.9941 -0.0094
vn 0.5325 0.0000 0.8464
vn 0.0027 0.0000 1.0000
vn 0.9940 0.0870 0.0660
vn -0.0222 -0.9995 -0.0210
vn -0.9943 -0.0188 -0.1046
vn 0.0473 0.9979 -0.0435
vn -1.0000 0.0000 -0.0000
vn 0.0205 0.9998 0.0000
vn 0.0487 0.0302 0.9984
vn -0.0236 -0.9957 -0.0895
vn 1.0000 0.0006 0.0064
vn -0.6112 -0.0389 -0.7905
vn 0.0382 -0.9993 -0.0033
vn 0.0486 0.9971 -0.0588
vn 0.0000 -1.0000 0.0054
vn -0.9920 0.0110 0.1254
vn -0.0397 -0.9981 0.0480
vn 0.0000 0.9966 -0.0825
vn -0.0075 0.9963 0.0856
vn 0.0065 0.9972 -0.0744
vn 0.9992 0.0000 -0.0396
vn -0.9994 -0.0031 -0.0351
vn 0.0079 -1.0000 0.0033
vn 0.9951 -0.0086 0.0986
vn -0.9946 0.0000 -0.1040
vn 0.0006 -0.9967 -0.0807
vn -0.0872 -0.1730 -0.9811
vn -0.0073 1.0000 0.0040
vn 0.9967 -0.0142 -0.0803
vn -0.9954 -0.0083 0.0950
vn 0.0172 0.0000 -0.9999
vn -0.0209 0.0000 0.9998
vn 0.0203 0.9998 -0.0094
vn 0.0331 -0.0499 -0.9982
vn 0.0844 -0.9964 0.0002
vn -0.0292 -0.9996 0.0026
vn 0.0505 0.0044 0.9987
vn -0.0533 0.0000 -0.9986
vn -0.4801 -0.0420 -0.8762
vn -0.0584 0.9978 0.0315
vn 0.0452 0.9989 0.0077
vn -0.0370 -0.9993 -0.0102
vn 0.0865 0.9962 0.0072
vn -0.9996 -0.0192 -0.0204
vn -0.0157 -0.9985 0.0530
vn 0.9915 0.0478 0.1209
vn 0.9977 0.0481 -0.0470
vn -0.9984 -0.0391 0.0398
vn -0.0768 -0.9926 -0.0939
vn -0.0330 0.0090 -0.9994
vn -0.9998 0.0215 0.0019
vn 0.0411 -0.0137 0.9991
vn 0.9960 -0.0292 0.0844
vn -0.0365 -0.0393 -0.9986
vn 0.9918 0.0938 0.0872
vn 0.0440 0.0402 0.9982
vn 0.0481 0.0302 0.9984
vn -0.0510 -0.0406 -0.9979
vn 0.0860 0.9963 0.0000
vn 0.0417 0.0302 0.9987
vn -0.0043 0.0305 0.9995
vn 0.1413 -0.9862 -0.0863
vn -0.0359 -0.0360 -0.9987
vn -0.1373 0.9905 -0.0120
vn -0.0451 -0.0357 -0.9983
vn 0.1075 -0.9912 -0.0776
vn 0.0031 -0.0359 -0.9993
vn -0.1132 0.9936 0.0000
vn 0.5107 0.0380 0.8589
vn 0.0191 0.0250 0.9995
vn 0.9964 0.0669 0.0517
vn -0.0371 -0.9993 -0.0085
vn -0.9957 0.0000 -0.0931
vn 0.0597 0.9968 -0.0532
vn 0.0198 0.9998 0.0017
vn 0.0486 0.0304 0.9984
vn -0.0247 -0.9959 -0.0871
vn 0.9996 0.0275 -0.0109
vn -0.6549 0.0000 -0.7557
vn 0.0489 -0.9971 -0.0591
vn 0.0389 0.9992 -0.0034
vn -0.0004 -1.0000 0.0051
vn -0.9952 -0.0250 0.0947
vn 0.0000 -0.9965 0.0836
vn 0.0396 0.9981 -0.0479
vn -0.0004 0.9966 0.0825
vn 0.0000 0.9969 -0.0791
vn 0.9993 -0.0032 -0.0371
vn -0.9993 0.0000 -0.0373
vn -0.0161 -0.9998 -0.0106
vn 0.9955 0.0000 0.0949
vn -0.9941 0.0095 -0.1084
vn 0.0073 -0.9965 -0.0836
vn 0.0142 0.9998 -0.0114
vn 0.9954 0.0083 -0.0952
vn -0.9967 0.0142 0.0804
s off
f 1/1/1 55/2/1 2/3/1
f 3/4/2 8/5/2 4/6/2
f 5/7/3 10/8/3 7/9/3
f 1/10/4 6/11/4 5/12/4
f 1/13/5 7/14/5 3/15/5
f 8/16/6 2/17/6 4/18/6
f 12/19/7 13/20/7 16/21/7
f 6/22/8 9/23/8 12/24/8
f 7/25/9 9/26/9 8/27/9
f 5/28/10 12/29/10 11/30/10
f 15/31/11 20/32/11 19/33/11
f 10/34/12 13/35/12 9/36/12
f 11/37/13 16/38/13 15/39/13
f 11/40/14 14/41/14 10/42/14
f 19/43/15 17/44/15 18/45/15
f 14/46/16 19/47/16 18/48/16
f 13/49/17 20/50/17 16/51/17
f 57/52/18 22/53/18 58/54/18
f 57/55/19 23/56/19 24/57/19
f 59/58/20 21/59/20 23/60/20
f 58/61/21 21/62/21 60/63/21
f 26/64/22 27/65/22 25/66/22
f 21/67/23 26/68/23 25/69/23
f 21/70/6 27/71/6 23/72/6
f 23/73/24 28/74/24 24/75/24
f 39/76/25 41/77/25 43/78/25
f 32/79/26 37/80/26 31/81/26
f 31/81/27 22/82/27 24/75/27
f 32/83/28 24/75/28 28/84/28
f 26/68/29 32/83/29 28/84/29
f 22/82/30 30/85/30 26/68/30
f 34/86/31 35/87/31 36/88/31
f 31/89/32 33/90/32 29/91/32
f 29/92/33 34/93/33 30/85/33
f 30/94/34 36/95/34 32/83/34
f 36/96/35 38/97/35 32/98/35
f 35/99/36 37/100/36 39/101/36
f 36/102/37 39/103/37 40/104/37
f 42/105/38 48/106/38 46/107/38
f 39/101/5 44/108/5 40/109/5
f 40/110/39 42/111/39 38/112/39
f 37/113/40 42/114/40 41/115/40
f 46/116/41 52/117/41 50/118/41
f 42/119/42 45/120/42 41/121/42
f 41/122/43 47/123/43 43/124/43
f 44/125/44 47/126/44 48/127/44
f 51/128/45 61/129/45 63/130/45
f 46/131/46 49/132/46 45/133/46
f 45/134/47 51/135/47 47/136/47
f 48/137/48 51/138/48 52/139/48
f 56/140/49 65/141/49 53/142/49
f 4/143/6 55/144/6 56/145/6
f 3/146/5 54/147/5 1/148/5
f 3/149/50 56/150/50 53/151/50
f 14/152/51 60/153/51 13/154/51
f 17/155/52 60/156/52 59/157/52
f 18/158/53 59/159/53 57/160/53
f 18/161/54 58/162/54 14/163/54
f 61/164/55 64/165/55 63/166/55
f 52/167/56 63/168/56 64/169/56
f 52/170/57 62/171/57 50/172/57
f 50/173/58 61/174/58 49/175/58
f 65/176/59 72/177/59 69/178/59
f 55/179/60 66/180/60 67/181/60
f 55/182/61 68/183/61 56/184/61
f 54/185/62 65/186/62 66/187/62
f 71/188/63 76/189/63 72/190/63
f 67/191/64 70/192/64 71/193/64
f 67/194/65 72/195/65 68/196/65
f 66/197/66 69/198/66 70/199/66
f 73/200/67 78/201/67 74/202/67
f 70/203/68 73/204/68 74/205/68
f 69/206/69 76/207/69 73/208/69
f 70/209/70 75/210/70 71/193/70
f 79/211/71 84/212/71 80/213/71
f 73/214/72 80/215/72 77/216/72
f 74/217/73 79/218/73 75/219/73
f 76/220/74 79/221/74 80/222/74
f 81/223/75 83/224/75 82/225/75
f 77/226/76 82/227/76 78/228/76
f 77/229/77 84/230/77 81/231/77
f 78/232/78 83/233/78 79/234/78
f 1/1/79 54/235/79 55/2/79
f 3/4/80 7/236/80 8/5/80
f 5/7/81 11/237/81 10/8/81
f 1/10/82 2/238/82 6/11/82
f 1/13/5 5/239/5 7/14/5
f 8/16/6 6/240/6 2/17/6
f 12/19/83 9/241/83 13/20/83
f 6/22/84 8/242/84 9/23/84
f 7/25/85 10/243/85 9/26/85
f 5/28/86 6/244/86 12/29/86
f 15/31/87 16/245/87 20/32/87
f 10/34/12 14/246/12 13/35/12
f 11/37/13 12/247/13 16/38/13
f 11/40/88 15/248/88 14/41/88
f 19/43/15 20/249/15 17/44/15
f 14/46/89 15/250/89 19/47/89
f 13/49/90 17/251/90 20/50/90
f 57/52/91 24/252/91 22/53/91
f 57/55/92 59/253/92 23/56/92
f 59/58/93 60/254/93 21/59/93
f 58/61/94 22/255/94 21/62/94
f 26/64/22 28/84/22 27/65/22
f 21/67/95 22/82/95 26/68/95
f 21/70/6 25/256/6 27/71/6
f 23/73/96 27/257/96 28/74/96
f 39/76/25 37/258/25 41/77/25
f 32/79/97 38/259/97 37/80/97
f 31/81/98 29/91/98 22/82/98
f 32/83/99 31/81/99 24/75/99
f 26/68/100 30/85/100 32/83/100
f 22/82/101 29/92/101 30/85/101
f 34/86/31 33/260/31 35/87/31
f 31/89/102 35/261/102 33/90/102
f 29/92/103 33/262/103 34/93/103
f 30/94/104 34/263/104 36/95/104
f 36/96/105 40/264/105 38/97/105
f 35/99/106 31/265/106 37/100/106
f 36/102/107 35/266/107 39/103/107
f 42/105/108 44/267/108 48/106/108
f 39/101/5 43/268/5 44/108/5
f 40/110/39 44/269/39 42/111/39
f 37/113/40 38/270/40 42/114/40
f 46/116/109 48/271/109 52/117/109
f 42/119/110 46/272/110 45/120/110
f 41/122/111 45/273/111 47/123/111
f 44/125/112 43/274/112 47/126/112
f 51/128/113 49/275/113 61/129/113
f 46/131/114 50/276/114 49/132/114
f 45/134/115 49/277/115 51/135/115
f 48/137/116 47/278/116 51/138/116
f 56/140/117 68/279/117 65/141/117
f 4/143/6 2/280/6 55/144/6
f 3/146/5 53/281/5 54/147/5
f 3/149/118 4/282/118 56/150/118
f 14/152/119 58/283/119 60/153/119
f 17/155/120 13/284/120 60/156/120
f 18/158/121 17/285/121 59/159/121
f 18/161/122 57/286/122 58/162/122
f 61/164/55 62/287/55 64/165/55
f 52/167/123 51/138/123 63/168/123
f 52/170/124 64/288/124 62/171/124
f 50/173/125 62/289/125 61/174/125
f 65/176/126 68/290/126 72/177/126
f 55/179/127 54/291/127 66/180/127
f 55/182/128 67/181/128 68/183/128
f 54/185/129 53/292/129 65/186/129
f 71/188/130 75/293/130 76/189/130
f 67/191/131 66/294/131 70/192/131
f 67/194/132 71/295/132 72/195/132
f 66/197/133 65/296/133 69/198/133
f 73/200/134 77/297/134 78/201/134
f 70/203/135 69/298/135 73/204/135
f 69/206/136 72/299/136 76/207/136
f 70/209/137 74/300/137 75/210/137
f 79/211/138 83/301/138 84/212/138
f 73/214/139 76/302/139 80/215/139
f 74/217/140 78/303/140 79/218/140
f 76/220/141 75/304/141 79/221/141
f 81/223/75 84/305/75 83/224/75
f 77/226/142 81/306/142 82/227/142
f 77/229/143 80/307/143 84/230/143
f 78/232/144 82/308/144 83/233/144
