# Blender v2.83.9 OBJ File: 'BlendGift.blend'
# www.blender.org
o Beg3.trg.001_MESH.003
v 24.358324 -2.032128 -12.428640
v 27.306723 -2.032128 -12.428640
v 24.358324 -6.350400 -17.481949
v 27.306723 -6.350400 -17.481951
v 24.358324 2.000000 -17.423861
v 24.358324 2.000000 -12.370551
v 27.306723 2.000000 -12.370552
v 27.306723 2.000000 -17.423861
vt 0.943359 0.402344
vt 0.900391 0.474609
vt 0.943359 0.484375
vt 0.900391 0.474609
vt 0.943359 0.402344
vt 0.943359 0.484375
vt 0.900391 0.392578
vt 0.900391 0.392578
vn 0.0000 -0.7602 0.6497
vn 0.0000 1.0000 0.0000
vn 1.0000 0.0000 0.0000
vn -1.0000 0.0000 0.0000
vn -0.0000 0.0070 -1.0000
vn 0.0000 -0.0144 0.9999
s off
f 3/1/1 2/2/1 1/3/1
f 7/4/2 5/5/2 6/6/2
f 2/2/3 8/7/3 7/4/3
f 1/3/4 5/5/4 3/1/4
f 3/1/5 8/7/5 4/8/5
f 2/2/6 6/6/6 1/3/6
f 3/1/1 4/8/1 2/2/1
f 7/4/2 8/7/2 5/5/2
f 2/2/3 4/8/3 8/7/3
f 1/3/4 6/6/4 5/5/4
f 3/1/5 5/5/5 8/7/5
f 2/2/6 7/4/6 6/6/6
