# Blender v2.83.9 OBJ File: 'BlendGift.blend'
# www.blender.org
o Beg3.trg_MESH.002
v 27.578880 -10.163864 -11.971818
v 30.481920 -10.163864 -11.971817
v 27.578880 -6.347177 -16.242105
v 30.481920 -6.347177 -16.242104
v 27.578880 -2.000000 -16.184017
v 27.578880 -2.000000 -11.913730
v 30.481920 -2.000000 -11.913728
v 30.481920 -2.000000 -16.184015
vt 0.457031 0.492188
vt 0.500000 0.412109
vt 0.457031 0.421875
vt 0.457031 0.421875
vt 0.500000 0.482422
vt 0.457031 0.492188
vt 0.500000 0.482422
vt 0.500000 0.412109
vn 0.0000 -0.7456 -0.6664
vn 0.0000 1.0000 0.0000
vn 1.0000 -0.0000 0.0000
vn -1.0000 0.0000 0.0000
vn 0.0000 0.0134 -0.9999
vn 0.0000 -0.0071 1.0000
s off
f 3/1/1 2/2/1 1/3/1
f 6/4/2 8/5/2 5/6/2
f 4/7/3 7/8/3 2/2/3
f 3/1/4 6/4/4 5/6/4
f 3/1/5 8/5/5 4/7/5
f 2/2/6 6/4/6 1/3/6
f 3/1/1 4/7/1 2/2/1
f 6/4/2 7/8/2 8/5/2
f 4/7/3 8/5/3 7/8/3
f 3/1/4 1/3/4 6/4/4
f 3/1/5 5/6/5 8/5/5
f 2/2/6 7/8/6 6/4/6
