# Blender v2.83.9 OBJ File: ''
# www.blender.org
o Cube_Cube.001
v -0.300000 -5.564632 -2.263817
v -0.300000 5.311062 2.807602
v -0.300000 -5.311062 -2.807602
v -0.300000 5.564632 2.263817
v 0.300000 -5.564632 -2.263817
v 0.300000 5.311062 2.807602
v 0.300000 -5.311062 -2.807602
v 0.300000 5.564632 2.263817
v -0.300000 -5.535550 2.334028
v -0.300000 5.740762 -1.770213
v -0.300000 -5.740762 1.770213
v -0.300000 5.535550 -2.334028
v 0.300000 -5.535550 2.334028
v 0.300000 5.740762 -1.770213
v 0.300000 -5.740762 1.770213
v 0.300000 5.535550 -2.334028
v -0.300000 -5.564632 -5.263817
v -0.300000 5.311062 -0.192398
v -0.300000 -5.311061 -5.807602
v -0.300000 5.564633 -0.736183
v 0.300000 -5.564632 -5.263817
v 0.300000 5.311062 -0.192398
v 0.300000 -5.311061 -5.807602
v 0.300000 5.564633 -0.736183
v -0.300000 -5.535550 -0.665972
v -0.300000 5.740762 -4.770213
v -0.300000 -5.740762 -1.229787
v -0.300000 5.535550 -5.334029
v 0.300000 -5.535550 -0.665972
v 0.300000 5.740762 -4.770213
v 0.300000 -5.740762 -1.229787
v 0.300000 5.535550 -5.334029
v -0.300000 -5.564633 0.736183
v -0.300000 5.311061 5.807602
v -0.300000 -5.311062 0.192398
v -0.300000 5.564632 5.263817
v 0.300000 -5.564633 0.736183
v 0.300000 5.311061 5.807602
v 0.300000 -5.311062 0.192398
v 0.300000 5.564632 5.263817
v -0.300000 -5.535550 5.334029
v -0.300000 5.740762 1.229787
v -0.300000 -5.740762 4.770213
v -0.300000 5.535550 0.665972
v 0.300000 -5.535550 5.334029
v 0.300000 5.740762 1.229787
v 0.300000 -5.740762 4.770213
v 0.300000 5.535550 0.665972
vt 0.625000 0.000000
vt 0.375000 0.250000
vt 0.375000 0.000000
vt 0.625000 0.250000
vt 0.375000 0.500000
vt 0.625000 0.500000
vt 0.375000 0.750000
vt 0.625000 0.750000
vt 0.375000 1.000000
vt 0.625000 0.000000
vt 0.375000 0.250000
vt 0.375000 0.000000
vt 0.625000 0.250000
vt 0.375000 0.500000
vt 0.625000 0.750000
vt 0.375000 0.750000
vt 0.375000 1.000000
vt 0.625000 0.000000
vt 0.375000 0.250000
vt 0.375000 0.000000
vt 0.625000 0.250000
vt 0.375000 0.500000
vt 0.625000 0.500000
vt 0.375000 0.750000
vt 0.625000 0.750000
vt 0.375000 1.000000
vt 0.625000 0.000000
vt 0.375000 0.250000
vt 0.375000 0.000000
vt 0.625000 0.250000
vt 0.375000 0.500000
vt 0.625000 0.750000
vt 0.375000 0.750000
vt 0.375000 1.000000
vt 0.625000 0.000000
vt 0.375000 0.250000
vt 0.375000 0.000000
vt 0.625000 0.250000
vt 0.375000 0.500000
vt 0.625000 0.500000
vt 0.375000 0.750000
vt 0.625000 0.750000
vt 0.375000 1.000000
vt 0.625000 0.000000
vt 0.375000 0.250000
vt 0.375000 0.000000
vt 0.625000 0.250000
vt 0.375000 0.500000
vt 0.625000 0.750000
vt 0.375000 0.750000
vt 0.375000 1.000000
vt 0.625000 1.000000
vt 0.625000 0.500000
vt 0.625000 1.000000
vt 0.625000 1.000000
vt 0.625000 0.500000
vt 0.625000 1.000000
vt 0.625000 1.000000
vt 0.625000 0.500000
vt 0.625000 1.000000
vn -1.0000 -0.0000 0.0000
vn 0.0000 0.4226 -0.9063
vn 1.0000 -0.0000 0.0000
vn 0.0000 -0.4226 0.9063
vn 0.0000 -0.3420 -0.9397
vn 0.0000 0.3420 0.9397
s off
f 2/1/1 3/2/1 1/3/1
f 4/4/2 7/5/2 3/2/2
f 8/6/3 5/7/3 7/5/3
f 6/8/4 1/9/4 5/7/4
f 10/10/1 11/11/1 9/12/1
f 12/13/5 15/14/5 11/11/5
f 15/14/3 14/15/3 13/16/3
f 14/15/6 9/17/6 13/16/6
f 18/18/1 19/19/1 17/20/1
f 20/21/2 23/22/2 19/19/2
f 24/23/3 21/24/3 23/22/3
f 22/25/4 17/26/4 21/24/4
f 26/27/1 27/28/1 25/29/1
f 28/30/5 31/31/5 27/28/5
f 31/31/3 30/32/3 29/33/3
f 30/32/6 25/34/6 29/33/6
f 34/35/1 35/36/1 33/37/1
f 36/38/2 39/39/2 35/36/2
f 40/40/3 37/41/3 39/39/3
f 38/42/4 33/43/4 37/41/4
f 42/44/1 43/45/1 41/46/1
f 44/47/5 47/48/5 43/45/5
f 47/48/3 46/49/3 45/50/3
f 46/49/6 41/51/6 45/50/6
f 2/1/1 4/4/1 3/2/1
f 4/4/2 8/6/2 7/5/2
f 8/6/3 6/8/3 5/7/3
f 6/8/4 2/52/4 1/9/4
f 10/10/1 12/13/1 11/11/1
f 12/13/5 16/53/5 15/14/5
f 15/14/3 16/53/3 14/15/3
f 14/15/6 10/54/6 9/17/6
f 18/18/1 20/21/1 19/19/1
f 20/21/2 24/23/2 23/22/2
f 24/23/3 22/25/3 21/24/3
f 22/25/4 18/55/4 17/26/4
f 26/27/1 28/30/1 27/28/1
f 28/30/5 32/56/5 31/31/5
f 31/31/3 32/56/3 30/32/3
f 30/32/6 26/57/6 25/34/6
f 34/35/1 36/38/1 35/36/1
f 36/38/2 40/40/2 39/39/2
f 40/40/3 38/42/3 37/41/3
f 38/42/4 34/58/4 33/43/4
f 42/44/1 44/47/1 43/45/1
f 44/47/5 48/59/5 47/48/5
f 47/48/3 48/59/3 46/49/3
f 46/49/6 42/60/6 41/51/6
