# Blender v2.83.9 OBJ File: ''
# www.blender.org
o Cube.003_Cube.004
v -0.300000 -4.564632 -4.263817
v -0.300000 6.311062 0.807602
v -0.300000 -4.311062 -4.807602
v -0.300000 6.564632 0.263817
v 0.300000 -4.564632 -4.263817
v 0.300000 6.311062 0.807602
v 0.300000 -4.311062 -4.807602
v 0.300000 6.564632 0.263817
v -0.300000 -6.564633 -0.263817
v -0.300000 4.311061 4.807602
v -0.300000 -6.311062 -0.807602
v -0.300000 4.564632 4.263817
v 0.300000 -6.564633 -0.263817
v 0.300000 4.311061 4.807602
v 0.300000 -6.311062 -0.807602
v 0.300000 4.564632 4.263817
v -0.300000 -6.110880 1.293503
v -0.300000 4.281425 -4.706498
v -0.300000 -6.410880 0.773888
v -0.300000 3.981425 -5.226113
v 0.300000 -6.110880 1.293503
v 0.300000 4.281425 -4.706498
v 0.300000 -6.410880 0.773888
v 0.300000 3.981425 -5.226113
v -0.300000 -3.981425 5.226113
v -0.300000 6.410880 -0.773888
v -0.300000 -4.281425 4.706498
v -0.300000 6.110880 -1.293502
v 0.300000 -3.981425 5.226113
v 0.300000 6.410880 -0.773888
v 0.300000 -4.281425 4.706498
v 0.300000 6.110880 -1.293502
vt 0.625000 0.000000
vt 0.375000 0.250000
vt 0.375000 0.000000
vt 0.625000 0.250000
vt 0.375000 0.500000
vt 0.625000 0.500000
vt 0.375000 0.750000
vt 0.625000 0.750000
vt 0.375000 1.000000
vt 0.625000 0.000000
vt 0.375000 0.250000
vt 0.375000 0.000000
vt 0.625000 0.250000
vt 0.375000 0.500000
vt 0.625000 0.500000
vt 0.375000 0.750000
vt 0.625000 0.750000
vt 0.375000 1.000000
vt 0.625000 0.000000
vt 0.375000 0.250000
vt 0.375000 0.000000
vt 0.625000 0.250000
vt 0.375000 0.500000
vt 0.625000 0.750000
vt 0.375000 0.750000
vt 0.375000 1.000000
vt 0.625000 0.000000
vt 0.375000 0.250000
vt 0.375000 0.000000
vt 0.625000 0.250000
vt 0.375000 0.500000
vt 0.625000 0.750000
vt 0.375000 0.750000
vt 0.375000 1.000000
vt 0.625000 1.000000
vt 0.625000 1.000000
vt 0.625000 0.500000
vt 0.625000 1.000000
vt 0.625000 0.500000
vt 0.625000 1.000000
vn -1.0000 0.0000 0.0000
vn 0.0000 0.4226 -0.9063
vn 1.0000 0.0000 0.0000
vn 0.0000 -0.4226 0.9063
vn 0.0000 -0.5000 -0.8660
vn 0.0000 0.5000 0.8660
s off
f 2/1/1 3/2/1 1/3/1
f 4/4/2 7/5/2 3/2/2
f 8/6/3 5/7/3 7/5/3
f 6/8/4 1/9/4 5/7/4
f 10/10/1 11/11/1 9/12/1
f 12/13/2 15/14/2 11/11/2
f 16/15/3 13/16/3 15/14/3
f 14/17/4 9/18/4 13/16/4
f 18/19/1 19/20/1 17/21/1
f 20/22/5 23/23/5 19/20/5
f 23/23/3 22/24/3 21/25/3
f 22/24/6 17/26/6 21/25/6
f 26/27/1 27/28/1 25/29/1
f 28/30/5 31/31/5 27/28/5
f 31/31/3 30/32/3 29/33/3
f 30/32/6 25/34/6 29/33/6
f 2/1/1 4/4/1 3/2/1
f 4/4/2 8/6/2 7/5/2
f 8/6/3 6/8/3 5/7/3
f 6/8/4 2/35/4 1/9/4
f 10/10/1 12/13/1 11/11/1
f 12/13/2 16/15/2 15/14/2
f 16/15/3 14/17/3 13/16/3
f 14/17/4 10/36/4 9/18/4
f 18/19/1 20/22/1 19/20/1
f 20/22/5 24/37/5 23/23/5
f 23/23/3 24/37/3 22/24/3
f 22/24/6 18/38/6 17/26/6
f 26/27/1 28/30/1 27/28/1
f 28/30/5 32/39/5 31/31/5
f 31/31/3 32/39/3 30/32/3
f 30/32/6 26/40/6 25/34/6
