# Blender v2.83.9 OBJ File: 'BlendGift.blend'
# www.blender.org
o PlateTrg_Plane.023
v -21.000000 5.200000 36.000000
v -5.000000 0.000000 36.000000
v -21.000000 5.200000 32.000000
v -5.000000 0.000000 32.000000
v -37.000000 9.099999 52.000000
v -25.000000 5.200000 52.000000
v -37.000000 9.099999 48.000000
v -25.000000 5.200000 48.000000
v -21.000000 11.637501 32.000000
v -21.000000 11.637501 36.000000
v -5.000000 6.437501 36.000000
v -5.000000 6.437501 32.000000
v -37.000000 15.537500 52.000000
v -37.000000 15.537500 48.000000
v -25.000000 11.637501 52.000000
v -25.000000 11.637501 48.000000
vt 0.000000 1.000000
vt 1.000000 0.000000
vt 0.000000 0.000000
vt 0.000000 1.000000
vt 1.000000 0.000000
vt 0.000000 0.000000
vt 1.000000 0.000000
vt 0.000000 1.000000
vt 0.000000 0.000000
vt 1.000000 0.000000
vt 0.000000 1.000000
vt 0.000000 0.000000
vt 1.000000 1.000000
vt 1.000000 1.000000
vt 1.000000 1.000000
vt 1.000000 1.000000
vn -0.3091 -0.9510 0.0000
vn 0.3091 0.9510 0.0000
vn -0.0000 0.0000 1.0000
vn 1.0000 0.0000 0.0000
vn 0.0000 0.0000 -1.0000
vn -1.0000 0.0000 0.0000
s off
f 3/1/1 2/2/1 1/3/1
f 7/4/1 6/5/1 5/6/1
f 11/7/2 9/8/2 10/9/2
f 15/10/2 14/11/2 13/12/2
f 1/3/3 11/7/3 10/9/3
f 4/13/4 11/7/4 2/2/4
f 3/1/5 12/14/5 4/13/5
f 5/6/6 14/11/6 7/4/6
f 5/6/3 15/10/3 13/12/3
f 8/15/4 15/10/4 6/5/4
f 7/4/5 16/16/5 8/15/5
f 1/3/6 9/8/6 3/1/6
f 3/1/1 4/13/1 2/2/1
f 7/4/1 8/15/1 6/5/1
f 11/7/2 12/14/2 9/8/2
f 15/10/2 16/16/2 14/11/2
f 1/3/3 2/2/3 11/7/3
f 4/13/4 12/14/4 11/7/4
f 3/1/5 9/8/5 12/14/5
f 5/6/6 13/12/6 14/11/6
f 5/6/3 6/5/3 15/10/3
f 8/15/4 16/16/4 15/10/4
f 7/4/5 14/11/5 16/16/5
f 1/3/6 10/9/6 9/8/6
